<svg width="111" height="79" viewBox="0 0 111 79" fill="none" xmlns="http://www.w3.org/2000/svg">
<g clip-path="url(#clip0_2_9)">
<path d="M69.4988 54.0343C69.4817 46.5862 63.2558 40.5618 55.5929 40.5785C47.9299 40.5951 41.7318 46.6465 41.7489 54.0946C41.766 61.5427 47.9919 67.5671 55.6549 67.5504C63.3178 67.5338 69.5159 61.4824 69.4988 54.0343Z" stroke="#F5B301" stroke-width="16" stroke-linecap="round" stroke-linejoin="round"/>
<path d="M43.6942 60.9556C37.2456 64.299 29.5743 67.6071 24.4362 67.6182C20.7563 67.6262 17.2239 66.213 14.616 63.6896C12.0081 61.1661 10.5384 57.7391 10.5302 54.1624C10.522 50.5857 11.9759 47.1523 14.5722 44.6175C17.1684 42.0828 20.6943 40.6543 24.3742 40.6463C29.5122 40.6351 37.1987 43.9099 43.6626 47.2252" stroke="#F5B301" stroke-width="16" stroke-linecap="round" stroke-linejoin="round"/>
<path d="M67.5536 47.1733C74.0021 43.8299 81.6735 40.5218 86.8115 40.5107C90.4914 40.5027 94.0238 41.9158 96.6317 44.4393C99.2396 46.9628 100.709 50.3898 100.717 53.9665C100.726 57.5432 99.2718 60.9766 96.6755 63.5114C94.0793 66.0461 90.5534 67.4746 86.8735 67.4826C81.7355 67.4938 74.049 64.219 67.5851 60.9037" stroke="#F5B301" stroke-width="16" stroke-linecap="round" stroke-linejoin="round"/>
<path d="M55.4498 40.5788C55.6936 33.477 56.5812 25.3666 59.1424 21.0371C60.0375 19.4784 61.242 18.1079 62.6861 17.0052C64.1302 15.9024 65.7852 15.0892 67.555 14.6128C69.3249 14.1364 71.1745 14.0063 72.9965 14.2299C74.8186 14.4536 76.5768 15.0266 78.1692 15.9157C79.7617 16.8048 81.1567 17.9924 82.2734 19.4095C83.3901 20.8266 84.2062 22.4451 84.6745 24.1711C85.1427 25.8971 85.2538 27.6963 85.0012 29.4644C84.7487 31.2324 84.1375 32.9341 83.2032 34.4709C80.6462 38.8004 73.8846 43.6363 67.6972 47.4174" stroke="#F5B301" stroke-width="16" stroke-linecap="round" stroke-linejoin="round"/>
<path d="M43.5201 47.4699C37.3154 43.7157 30.5316 38.9092 27.9548 34.5908C27.0134 33.0582 26.3944 31.3591 26.1337 29.5922C25.873 27.8253 25.9758 26.0256 26.4361 24.2976C26.8964 22.5696 27.7051 20.9475 28.8153 19.5256C29.9254 18.1036 31.315 16.91 32.9033 16.014C34.4917 15.118 36.2472 14.5374 38.0682 14.3058C39.8892 14.0742 41.7394 14.1963 43.5114 14.665C45.2835 15.1337 46.9422 15.9397 48.3913 17.0362C49.8405 18.1327 51.0513 19.4979 51.9535 21.0527C54.5346 25.371 55.4508 33.4775 55.7359 40.5782" stroke="#F5B301" stroke-width="16" stroke-linecap="round" stroke-linejoin="round"/>
</g>
<defs>
<clipPath id="clip0_2_9">
<rect width="111" height="79" fill="white"/>
</clipPath>
</defs>
</svg>
