<svg width="33" height="32" viewBox="0 0 33 32" fill="none" xmlns="http://www.w3.org/2000/svg">
<g id="plus (1) 1">
<path id="Vector" d="M28.875 16C28.875 16.2652 28.7664 16.5196 28.573 16.7071C28.3796 16.8946 28.1173 17 27.8438 17H17.5312V27C17.5312 27.2652 17.4226 27.5196 17.2292 27.7071C17.0358 27.8946 16.7735 28 16.5 28C16.2265 28 15.9642 27.8946 15.7708 27.7071C15.5774 27.5196 15.4688 27.2652 15.4688 27V17H5.15625C4.88275 17 4.62044 16.8946 4.42705 16.7071C4.23365 16.5196 4.125 16.2652 4.125 16C4.125 15.7348 4.23365 15.4804 4.42705 15.2929C4.62044 15.1054 4.88275 15 5.15625 15H15.4688V5C15.4688 4.73478 15.5774 4.48043 15.7708 4.29289C15.9642 4.10536 16.2265 4 16.5 4C16.7735 4 17.0358 4.10536 17.2292 4.29289C17.4226 4.48043 17.5312 4.73478 17.5312 5V15H27.8438C28.1173 15 28.3796 15.1054 28.573 15.2929C28.7664 15.4804 28.875 15.7348 28.875 16Z" fill="white"/>
</g>
</svg>
